<svg xmlns="http://www.w3.org/2000/svg" width="1431" height="971" viewBox="0 0 1431 971" version="1.1">
	<path d="M 1072.615 68.006 C 1072.263 70.210, 1070.669 75.300, 1069.072 79.318 C 1059.387 103.699, 1040.484 122.469, 1011.500 136.486 C 989.145 147.297, 968.985 152.765, 933 157.776 C 922.784 159.199, 892.414 159.440, 661 159.939 L 400.500 160.500 393.284 163.138 C 381.525 167.437, 371.173 175.810, 364.615 186.328 C 363.645 187.883, 361.648 192.158, 360.176 195.828 L 357.500 202.500 357.242 586.750 L 356.985 971 715.492 971 L 1074 971 1074 517.500 C 1074 268.075, 1073.833 64, 1073.628 64 C 1073.423 64, 1072.967 65.803, 1072.615 68.006" stroke="none" fill="#042a4f" fill-rule="evenodd"/>
</svg>