<svg xmlns="http://www.w3.org/2000/svg" width="422" height="506" viewBox="0 0 422 506" version="1.1" opacity="0.6">
	<path d="M 0.492 252.500 C 0.492 390, 0.608 446.101, 0.750 377.170 C 0.892 308.238, 0.892 195.738, 0.750 127.170 C 0.608 58.601, 0.492 115, 0.492 252.500 M 418.664 11.492 C 409.481 26.028, 388.366 36.028, 355 41.644 C 345.369 43.265, 331.340 43.456, 185.500 43.956 L 26.500 44.500 21.286 46.858 C 15.103 49.654, 7.740 57.157, 4.679 63.783 L 2.500 68.500 2.237 285.250 C 1.973 501.899, 1.974 502, 3.987 502 C 5.333 502, 6 502.662, 6 504 C 6 505.994, 6.667 506, 214 506 L 422 506 422 256.500 C 422 119.275, 421.887 7.001, 421.750 7.002 C 421.613 7.003, 420.224 9.024, 418.664 11.492" stroke="none" fill="#042a4f" fill-rule="evenodd"/>
</svg>